<svg width="15" height="14" viewBox="0 0 15 14" fill="none" xmlns="http://www.w3.org/2000/svg">
<path d="M6.16666 7.66659H1.49999C1.32318 7.66659 1.15361 7.73682 1.02859 7.86185C0.903566 7.98687 0.833328 8.15644 0.833328 8.33325V12.9999C0.833328 13.1767 0.903566 13.3463 1.02859 13.4713C1.15361 13.5963 1.32318 13.6666 1.49999 13.6666H6.16666C6.34347 13.6666 6.51304 13.5963 6.63807 13.4713C6.76309 13.3463 6.83333 13.1767 6.83333 12.9999V8.33325C6.83333 8.15644 6.76309 7.98687 6.63807 7.86185C6.51304 7.73682 6.34347 7.66659 6.16666 7.66659ZM5.5 12.3333H2.16666V8.99992H5.5V12.3333ZM13.5 0.333252H8.83333C8.65652 0.333252 8.48695 0.40349 8.36192 0.528514C8.2369 0.653538 8.16666 0.823108 8.16666 0.999919V5.66659C8.16666 5.8434 8.2369 6.01297 8.36192 6.13799C8.48695 6.26301 8.65652 6.33325 8.83333 6.33325H13.5C13.6768 6.33325 13.8464 6.26301 13.9714 6.13799C14.0964 6.01297 14.1667 5.8434 14.1667 5.66659V0.999919C14.1667 0.823108 14.0964 0.653538 13.9714 0.528514C13.8464 0.40349 13.6768 0.333252 13.5 0.333252ZM12.8333 4.99992H9.5V1.66659H12.8333V4.99992ZM13.5 7.66659H8.83333C8.65652 7.66659 8.48695 7.73682 8.36192 7.86185C8.2369 7.98687 8.16666 8.15644 8.16666 8.33325V12.9999C8.16666 13.1767 8.2369 13.3463 8.36192 13.4713C8.48695 13.5963 8.65652 13.6666 8.83333 13.6666H13.5C13.6768 13.6666 13.8464 13.5963 13.9714 13.4713C14.0964 13.3463 14.1667 13.1767 14.1667 12.9999V8.33325C14.1667 8.15644 14.0964 7.98687 13.9714 7.86185C13.8464 7.73682 13.6768 7.66659 13.5 7.66659ZM12.8333 12.3333H9.5V8.99992H12.8333V12.3333ZM6.16666 0.333252H1.49999C1.32318 0.333252 1.15361 0.40349 1.02859 0.528514C0.903566 0.653538 0.833328 0.823108 0.833328 0.999919V5.66659C0.833328 5.8434 0.903566 6.01297 1.02859 6.13799C1.15361 6.26301 1.32318 6.33325 1.49999 6.33325H6.16666C6.34347 6.33325 6.51304 6.26301 6.63807 6.13799C6.76309 6.01297 6.83333 5.8434 6.83333 5.66659V0.999919C6.83333 0.823108 6.76309 0.653538 6.63807 0.528514C6.51304 0.40349 6.34347 0.333252 6.16666 0.333252ZM5.5 4.99992H2.16666V1.66659H5.5V4.99992Z" fill="white"/>
</svg>
