<svg width="5" height="8" viewBox="0 0 5 8" fill="none" xmlns="http://www.w3.org/2000/svg">
<path d="M4.56501 3.58581L1.26334 0.289981C1.20911 0.235306 1.1446 0.191909 1.07351 0.162294C1.00243 0.132679 0.926183 0.117432 0.849176 0.117432C0.77217 0.117432 0.695925 0.132679 0.62484 0.162294C0.553755 0.191909 0.489238 0.235306 0.43501 0.289981C0.326363 0.399275 0.265381 0.547122 0.265381 0.701231C0.265381 0.855339 0.326363 1.00319 0.43501 1.11248L3.32251 4.02915L0.43501 6.91665C0.326363 7.02594 0.265381 7.17379 0.265381 7.3279C0.265381 7.48201 0.326363 7.62985 0.43501 7.73915C0.489035 7.79426 0.553461 7.83811 0.624555 7.86815C0.695649 7.89819 0.771997 7.91383 0.849176 7.91415C0.926356 7.91383 1.0027 7.89819 1.0738 7.86815C1.14489 7.83811 1.20932 7.79426 1.26334 7.73915L4.56501 4.44331C4.62422 4.38869 4.67148 4.32239 4.7038 4.2486C4.73612 4.17481 4.7528 4.09512 4.7528 4.01456C4.7528 3.934 4.73612 3.85432 4.7038 3.78053C4.67148 3.70674 4.62422 3.64044 4.56501 3.58581Z" fill="white"/>
</svg>
