<svg width="8" height="4" viewBox="0 0 8 4" fill="none" xmlns="http://www.w3.org/2000/svg">
<path d="M6.91666 0.349194C6.80736 0.240548 6.65952 0.179565 6.50541 0.179565C6.3513 0.179565 6.20345 0.240548 6.09416 0.349194L3.99999 2.41419L1.93499 0.349194C1.8257 0.240548 1.67785 0.179565 1.52374 0.179565C1.36963 0.179565 1.22179 0.240548 1.11249 0.349194C1.05782 0.403423 1.01442 0.46794 0.984804 0.539025C0.955189 0.610109 0.939941 0.686354 0.939941 0.763361C0.939941 0.840368 0.955189 0.916613 0.984804 0.987698C1.01442 1.05878 1.05782 1.1233 1.11249 1.17753L3.58582 3.65086C3.64005 3.70554 3.70457 3.74893 3.77565 3.77855C3.84674 3.80816 3.92298 3.82341 3.99999 3.82341C4.077 3.82341 4.15324 3.80816 4.22433 3.77855C4.29541 3.74893 4.35993 3.70554 4.41416 3.65086L6.91666 1.17753C6.97133 1.1233 7.01473 1.05878 7.04434 0.987698C7.07396 0.916613 7.08921 0.840368 7.08921 0.763361C7.08921 0.686354 7.07396 0.610109 7.04434 0.539025C7.01473 0.46794 6.97133 0.403423 6.91666 0.349194Z" fill="#747474"/>
</svg>
