<svg width="10" height="7" viewBox="0 0 10 7" fill="none" xmlns="http://www.w3.org/2000/svg">
<path d="M9.47334 0.265924C9.41136 0.203439 9.33763 0.153842 9.25639 0.119997C9.17515 0.0861509 9.08802 0.0687256 9.00001 0.0687256C8.912 0.0687256 8.82486 0.0861509 8.74362 0.119997C8.66238 0.153842 8.58865 0.203439 8.52667 0.265924L3.56001 5.23926L1.47334 3.14592C1.40899 3.08377 1.33303 3.03489 1.2498 3.00209C1.16656 2.96928 1.07768 2.9532 0.988222 2.95475C0.898768 2.95629 0.810495 2.97544 0.728443 3.01111C0.646391 3.04677 0.572166 3.09824 0.510007 3.16259C0.447848 3.22694 0.398972 3.3029 0.36617 3.38614C0.333367 3.46937 0.31728 3.55826 0.318828 3.64771C0.320375 3.73716 0.339527 3.82544 0.375189 3.90749C0.410852 3.98954 0.462326 4.06377 0.526674 4.12592L3.08667 6.68592C3.14865 6.74841 3.22238 6.79801 3.30362 6.83185C3.38486 6.8657 3.472 6.88312 3.56001 6.88312C3.64802 6.88312 3.73515 6.8657 3.81639 6.83185C3.89763 6.79801 3.97137 6.74841 4.03334 6.68592L9.47334 1.24592C9.54101 1.1835 9.59502 1.10773 9.63195 1.0234C9.66889 0.939063 9.68796 0.847992 9.68796 0.755925C9.68796 0.663857 9.66889 0.572787 9.63195 0.488454C9.59502 0.404121 9.54101 0.328353 9.47334 0.265924Z" fill="white"/>
</svg>
